<?xml version="1.0" encoding="UTF-8" standalone="no"?>
<svg
   xmlns:dc="http://purl.org/dc/elements/1.1/"
   xmlns:cc="http://creativecommons.org/ns#"
   xmlns:rdf="http://www.w3.org/1999/02/22-rdf-syntax-ns#"
   xmlns:svg="http://www.w3.org/2000/svg"
   xmlns="http://www.w3.org/2000/svg"
   xmlns:sodipodi="http://sodipodi.sourceforge.net/DTD/sodipodi-0.dtd"
   xmlns:inkscape="http://www.inkscape.org/namespaces/inkscape"
   viewBox="0 0 508.63751 93.105774"
   preserveAspectRatio="xMidYMid meet"
   class="css-1y5supu"
   id="gbehfegd"
   version="1.1"
   sodipodi:docname="logo.svg"
   inkscape:version="0.92.4 (5da689c313, 2019-01-14)"
   inkscape:export-filename="/home/vzhitko/Dropbox/Work/UIIP/logo.svg.png"
   inkscape:export-xdpi="96"
   inkscape:export-ydpi="96"
   width="508.63751"
   height="93.105774">
  <metadata
     id="metadata731">
    <rdf:RDF>
      <cc:Work
         rdf:about="">
        <dc:format>image/svg+xml</dc:format>
        <dc:type
           rdf:resource="http://purl.org/dc/dcmitype/StillImage" />
        <dc:title></dc:title>
      </cc:Work>
    </rdf:RDF>
  </metadata>
  <sodipodi:namedview
     pagecolor="#ffffff"
     bordercolor="#666666"
     borderopacity="1"
     objecttolerance="10"
     gridtolerance="10"
     guidetolerance="10"
     inkscape:pageopacity="0"
     inkscape:pageshadow="2"
     inkscape:window-width="1920"
     inkscape:window-height="994"
     id="namedview729"
     showgrid="false"
     inkscape:zoom="2.3364177"
     inkscape:cx="289.22621"
     inkscape:cy="0.78183923"
     inkscape:window-x="0"
     inkscape:window-y="33"
     inkscape:window-maximized="1"
     inkscape:current-layer="gbehfegd"
     fit-margin-top="0"
     fit-margin-left="0"
     fit-margin-right="0"
     fit-margin-bottom="0" />
  <defs
     id="SvgjsDefs2137" />
  <g
     id="SvgjsG2138"
     featurekey="root"
     style="fill:#d0ebfc"
     transform="translate(-8.7362423,-8.2991064)" />
  <g
     id="SvgjsG2139"
     featurekey="symbol1"
     transform="matrix(0.85126447,0,0,0.85126447,187.83255,-5.1775389)"
     style="fill:#666666">
    <title
       id="title717">Artboard 1</title>
    <path
       d="m 86,49 a 4.67,4.67 0 0 0 -4.62,4 H 64.89 L 60,62.44 49.94,17 38.62,74.17 29.17,30.75 22.26,53 h -4.45 a 4.7,4.7 0 1 0 -0.14,2 h 6.07 L 28.83,38.59 38.71,84 50.06,26.76 59.3,68.28 66.11,55 H 81.52 A 4.68,4.68 0 1 0 86,49 Z"
       id="path719"
       inkscape:connector-curvature="0"
       style="fill:#666666" />
  </g>
  <g
     id="SvgjsG2140"
     featurekey="text1"
     transform="matrix(4.8819463,0,0,4.8819463,5.2112017,-31.414414)"
     style="fill:#333333">
    <path
       d="m 62.62,7.2 v 1 H 59 V 20 H 58 V 8.2 h -3.6 v -1 z m 5.48,3.68 c -1.44,0.14 -2.86,1.66 -2.86,3.08 V 20 h -1 v -9.9 h 1 v 1.32 c 0.7,-0.84 1.7,-1.44 2.76,-1.54 z m 8.74,7.64 c 0.42,0.36 0.68,0.9 0.68,1.48 h -1 c 0,-0.28 -0.14,-0.62 -0.44,-0.8 -0.42,-0.22 -1.04,-0.1 -1.78,0.38 -0.66,0.4 -1.32,0.6 -1.94,0.6 -0.22,0 -0.42,-0.02 -0.6,-0.06 -0.72,-0.16 -1.34,-0.62 -1.76,-1.28 -0.46,-0.72 -0.66,-1.64 -0.54,-2.5 0.14,-0.96 0.64,-1.76 1.44,-2.28 0.62,-0.4 1.34,-0.62 2.06,-0.64 0.68,0 1.36,0.16 1.96,0.48 0.34,0.18 0.66,0.42 0.92,0.68 V 13.5 c 0,-1.1 -0.28,-1.86 -0.82,-2.26 -1.14,-0.8 -3.26,-0.06 -4.3,0.3 -0.14,0.06 -0.28,0.1 -0.38,0.14 l -0.3,-0.96 c 0.1,-0.02 0.22,-0.08 0.36,-0.12 1.18,-0.42 3.64,-1.26 5.18,-0.16 0.84,0.58 1.26,1.62 1.26,3.06 z m -3.08,0.2 c 0.88,-0.54 1.56,-0.66 2.08,-0.62 v -1.14 c 0,-0.9 -0.52,-1.7 -1.4,-2.18 -0.96,-0.52 -2.08,-0.48 -3,0.12 -1.2,0.78 -1.26,2.38 -0.6,3.4 0.64,1 1.74,1.16 2.92,0.42 z M 79.92,20 h -1 v -9.9 h 1 z m 0.3,-12.7 c 0,0.46 -0.36,0.82 -0.8,0.82 -0.44,0 -0.82,-0.36 -0.82,-0.82 0,-0.44 0.38,-0.8 0.82,-0.8 0.44,0 0.8,0.36 0.8,0.8 z m 7.82,3.4 c 0.68,0.62 1.02,1.54 1.02,2.74 V 20 h -1 v -6.56 c 0,-0.92 -0.24,-1.58 -0.7,-2 C 86.72,10.86 85.78,10.9 85.5,10.92 84.06,11.06 82.66,12.6 82.66,14 v 6 h -1 l -0.02,-9.88 1,-0.02 v 1.38 c 0.72,-0.84 1.72,-1.46 2.76,-1.56 0.5,-0.04 1.72,-0.06 2.64,0.78 z m 9.62,2.68 v 2.04 l -5.96,1.4 c 0.04,0.96 0.28,1.62 0.78,2 0.64,0.48 1.76,0.5 3.3,0.06 0.38,-0.1 1.26,-0.38 1.54,-0.48 l 0.34,0.94 c -0.26,0.08 -1.2,0.4 -1.6,0.5 -0.82,0.24 -1.56,0.36 -2.18,0.36 -0.82,0 -1.5,-0.2 -2.02,-0.6 C 91.1,19.02 90.7,18.04 90.7,16.66 v -0.04 -3.24 c 0,-0.76 0.14,-1.4 0.4,-1.92 0.24,-0.48 0.58,-0.84 1.02,-1.1 0.7,-0.42 1.46,-0.48 2.06,-0.48 0.6,0 1.36,0.06 2.06,0.48 0.44,0.26 0.78,0.62 1.02,1.1 0.26,0.52 0.4,1.16 0.4,1.92 z m -1,1.24 v -1.24 c 0,-2.22 -1.32,-2.5 -2.48,-2.5 -1.16,0 -2.48,0.28 -2.48,2.5 v 2.42 z m 6.46,-3.74 c -1.44,0.14 -2.86,1.66 -2.86,3.08 V 20 h -1 v -9.9 h 1 v 1.32 c 0.7,-0.84 1.7,-1.44 2.76,-1.54 z"
       id="path722"
       inkscape:connector-curvature="0"
       sodipodi:nodetypes="ccccccccccsccccccccccccssccccccsccccccscccscccccccccssssscsccsccscccccccscccccccscscsscscsscssscccsccccccc"
       style="fill:#333333" />
  </g>
  <path
     style="fill:#333333;stroke-width:4.88194609"
     d="M 4.8819497,62.39127 H 0 V 0 H 4.8819497 Z M 46.08558,16.98917 c 3.31973,3.02681 4.97959,7.5182 4.97959,13.37653 V 62.39127 H 46.18322 V 30.3657 c 0,-4.49139 -1.17167,-7.71347 -3.41737,-9.76389 -3.12444,-2.83153 -7.71347,-2.63625 -9.08042,-2.53861 -7.03,0.68347 -13.86472,8.20167 -13.86472,15.03639 v 29.29168 h -4.88195 l -0.0976,-48.23363 4.88195,-0.0976 v 6.73709 c 3.515,-4.10084 8.39694,-7.12765 13.47417,-7.61584 2.44097,-0.19528 8.39694,-0.29292 12.88834,3.80792 z m 42.08238,40.71543 1.07403,4.68667 c -2.83153,0.68347 -5.37015,0.97639 -7.61584,0.97639 H 80.2592 c -3.515,-0.19528 -6.44416,-1.26931 -8.7875,-3.12445 -3.515,-2.83153 -5.37014,-7.61584 -5.37014,-14.15764 V 19.72306 H 57.4117 v -4.88195 h 8.68986 V 1.8551396 h 4.88195 V 14.84111 h 14.15764 v 4.88195 H 70.98351 v 26.36251 c 0,4.97958 1.17166,8.49458 3.61264,10.34972 2.73389,2.2457 7.32292,2.63625 13.57181,1.26931 z M 129.6645,20.21125 c 3.22209,4.29612 4.78431,10.34973 4.78431,17.96557 0,7.61583 -1.56222,13.66944 -4.78431,17.96556 -1.65986,2.34333 -3.90555,4.10083 -6.44417,5.2725 -2.53861,1.2693 -5.56541,1.85514 -8.88514,1.85514 -3.31972,0 -6.34653,-0.58584 -8.88514,-1.85514 -2.53861,-1.17167 -4.68667,-2.92917 -6.444172,-5.2725 -3.22209,-4.29612 -4.78431,-10.34973 -4.78431,-17.96556 0,-7.61584 1.56222,-13.66945 4.78431,-17.96557 1.757502,-2.34333 3.905562,-4.10083 6.444172,-5.2725 2.53861,-1.2693 5.56542,-1.85514 8.88514,-1.85514 3.31973,0 6.34653,0.58584 8.88514,1.85514 2.53862,1.17167 4.78431,2.92917 6.44417,5.2725 z m -3.90555,33.00196 c 2.53861,-3.41736 3.80791,-8.49459 3.80791,-15.03639 0,-6.54181 -1.2693,-11.61904 -3.80791,-15.0364 -2.53862,-3.41736 -6.34653,-5.17486 -11.42376,-5.17486 -4.97958,0 -8.88514,1.7575 -11.42375,5.17486 -2.53861,3.41736 -3.807922,8.49459 -3.807922,15.0364 0,6.5418 1.269312,11.61903 3.807922,15.03639 2.53861,3.41736 6.44417,5.17486 11.42375,5.17486 5.07723,0 8.88514,-1.7575 11.42376,-5.17486 z m 46.6714,-36.22404 c 3.31973,3.02681 4.97959,7.5182 4.97959,13.37653 v 32.02557 h -4.88195 V 30.3657 c 0,-4.49139 -1.17166,-7.71347 -3.41736,-9.76389 -3.12445,-2.83153 -7.71348,-2.63625 -9.08042,-2.53861 -7.03,0.68347 -13.86473,8.20167 -13.86473,15.03639 v 29.29168 h -4.88194 l -0.0976,-48.23363 4.88194,-0.0976 v 6.73709 c 3.515,-4.10084 8.39695,-7.12765 13.47418,-7.61584 2.44097,-0.19528 8.39694,-0.29292 12.88833,3.80792 z"
     id="path722-6"
     inkscape:connector-curvature="0"
     sodipodi:nodetypes="ccccccsccsccscccccccccsccsccccccccccscccsccscssscsccscsssssssccccsccsccccccccc" />
  <g
     id="SvgjsG2141-3"
     featurekey="text3"
     transform="matrix(0.93587111,0,0,0.93587111,81.051092,74.369618)"
     style="fill:#4d4d4d">
    <path
       d="m 8.48,19.8 c -0.08,0.08 -0.16666,0.13338 -0.26,0.16004 -0.09334,0.02666 -0.18,0.04 -0.26,0.04 H 2.8 c -0.14666,0 -0.25,-0.01666 -0.31,-0.05 -0.06,-0.03334 -0.13,-0.09 -0.21,-0.17 l -1.14,-1.12 C 1.04666,18.5667 0.99,18.48336 0.97,18.41002 0.95,18.33668 0.94,18.26668 0.94,18.20002 v -2.04 c 0,-0.06666 0.02666,-0.13 0.08,-0.19 0.05334,-0.06 0.12,-0.09 0.2,-0.09 h 1.84 c 0.08,0 0.14666,0.03 0.2,0.09 0.05334,0.06 0.08,0.12334 0.08,0.19 v 1.44 h 3.58 c 0.02666,0 0.06,-0.02 0.1,-0.06 l 0.34,-0.32 C 7.4,17.19336 7.42,17.1467 7.42,17.08004 v -2.34 c 0,-0.05334 -0.02,-0.1 -0.06,-0.14 l -0.32,-0.32 c -0.04,-0.04 -0.08666,-0.06 -0.14,-0.06 H 2.74 c -0.04,0 -0.10334,-0.01334 -0.19,-0.04 -0.08666,-0.02666 -0.17666,-0.08666 -0.27,-0.18 l -1.14,-1.12 c -0.08,-0.08 -0.13334,-0.16334 -0.16,-0.25 -0.02666,-0.08666 -0.04,-0.17 -0.04,-0.25 v -4.5 c 0,-0.06666 0.01334,-0.14666 0.04,-0.24 C 1.00666,7.5467 1.06666,7.45336 1.16,7.36002 l 1.12,-1.12 c 0.06666,-0.06666 0.13,-0.11666 0.19,-0.15 0.06,-0.03334 0.17,-0.05 0.33,-0.05 h 5.16 c 0.08,0 0.17,0.01666 0.27,0.05 0.1,0.03334 0.18334,0.08334 0.25,0.15 l 1.12,1.12 c 0.10666,0.12 0.17,0.21666 0.19,0.29 0.02,0.07334 0.03,0.15 0.03,0.23 v 2.1 c 0,0.18666 -0.09334,0.28 -0.28,0.28 H 7.7 c -0.18666,0 -0.28,-0.09334 -0.28,-0.28 v -1.54 H 3.9 c -0.05334,0 -0.10668,0.02 -0.16002,0.06 l -0.34,0.32 c -0.04,0.02666 -0.06,0.07332 -0.06,0.13998 v 2.32 c 0,0.05334 0.02,0.1 0.06,0.14 l 0.34,0.34 c 0.04,0.04 0.09334,0.06 0.16,0.06 h 4.06 c 0.21334,0 0.38668,0.06666 0.52002,0.2 l 1.12,1.12 c 0.14666,0.16 0.22,0.33334 0.22,0.52 v 4.48 c 0,0.2 -0.07334,0.37334 -0.22,0.52 z m 3.64,0.2 c -0.18666,0 -0.28,-0.09334 -0.28,-0.28 V 6.32 c 0,-0.18666 0.09334,-0.28 0.28,-0.28 h 6.36 c 0.09334,0 0.18,0.01 0.26,0.03 0.08,0.02 0.16666,0.07666 0.26,0.17 l 1.12,1.12 c 0.10666,0.12 0.17,0.22334 0.19,0.31 0.02,0.08666 0.03,0.15666 0.03,0.21 v 5.14 c 0,0.2 -0.07334,0.37334 -0.22,0.52 L 19,14.66 c -0.06666,0.06666 -0.14,0.12 -0.22,0.16 -0.08,0.04 -0.18,0.06 -0.3,0.06 h -4.24 v 4.84 c 0,0.18666 -0.09334,0.28 -0.28,0.28 z m 5.76,-7.92 C 17.90666,12.05334 17.92,12.02666 17.92,12 V 8.92 c 0,-0.04 -0.01334,-0.07334 -0.04,-0.1 L 17.52,8.48 C 17.49334,8.45334 17.46,8.44 17.42,8.44 h -3.18 v 4.02 h 3.18 c 0.05334,0 0.09334,-0.01334 0.12,-0.04 z M 22.52,20 c -0.18666,0 -0.28,-0.09334 -0.28,-0.28 V 6.32 c 0,-0.18666 0.09334,-0.28 0.28,-0.28 h 7.26 c 0.18666,0 0.28,0.09334 0.28,0.28 v 1.84 c 0,0.06666 -0.02666,0.13 -0.08,0.19 -0.05334,0.06 -0.12,0.09 -0.2,0.09 h -5.14 v 3.38 h 4.06 c 0.06666,0 0.13,0.02666 0.19,0.08 0.06,0.05334 0.09,0.12 0.09,0.2 v 1.84 c 0,0.08 -0.03,0.14666 -0.09,0.2 -0.06,0.05334 -0.12334,0.08 -0.19,0.08 h -4.06 v 3.38 h 5.14 c 0.18666,0 0.28,0.09334 0.28,0.28 v 1.84 c 0,0.18666 -0.09334,0.28 -0.28,0.28 z m 9.42,0 c -0.18666,0 -0.28,-0.09334 -0.28,-0.28 V 6.32 c 0,-0.18666 0.09334,-0.28 0.28,-0.28 h 7.26 c 0.18666,0 0.28,0.09334 0.28,0.28 v 1.84 c 0,0.06666 -0.02666,0.13 -0.08,0.19 -0.05334,0.06 -0.12,0.09 -0.2,0.09 h -5.14 v 3.38 h 4.06 c 0.06666,0 0.13,0.02666 0.19,0.08 0.06,0.05334 0.09,0.12 0.09,0.2 v 1.84 c 0,0.08 -0.03,0.14666 -0.09,0.2 -0.06,0.05334 -0.12334,0.08 -0.19,0.08 h -4.06 v 3.38 h 5.14 c 0.18666,0 0.28,0.09334 0.28,0.28 v 1.84 c 0,0.18666 -0.09334,0.28 -0.28,0.28 z m 16.58,-0.2 c -0.06666,0.06666 -0.13336,0.11668 -0.20002,0.15002 -0.06666,0.03334 -0.17332,0.05 -0.31998,0.05 h -5.22 c -0.08,0 -0.15334,-0.01 -0.22,-0.03 -0.06666,-0.02 -0.14666,-0.07666 -0.24,-0.17 l -1.14,-1.14 c -0.08,-0.08 -0.13334,-0.15666 -0.16,-0.23 -0.02666,-0.07334 -0.04,-0.15 -0.04,-0.23 v -10.32 c 0,-0.21334 0.06666,-0.38668 0.2,-0.52002 L 42.32,6.24 C 42.4,6.16 42.48334,6.10666 42.57,6.08 42.65666,6.05334 42.74666,6.04 42.84,6.04 H 48 c 0.10666,0 0.2,0.01334 0.28,0.04 0.08,0.02666 0.16,0.08 0.24,0.16 l 1.12,1.12 c 0.08,0.08 0.13666,0.15 0.17,0.21 0.03334,0.06 0.05,0.16334 0.05,0.31 v 2.14 c 0,0.18666 -0.09334,0.28 -0.28,0.28 h -1.84 c -0.18666,0 -0.28,-0.09334 -0.28,-0.28 V 8.96 c 0,-0.05334 -0.02,-0.1 -0.06,-0.14 L 47.06,8.5 C 46.99334,8.46 46.95334,8.44 46.94,8.44 h -3 c -0.06666,0 -0.12,0.02 -0.16,0.06 L 43.44,8.82 C 43.4,8.86 43.38,8.90666 43.38,8.96 v 8.18 c 0,0.08 0.02,0.14 0.06,0.18 l 0.28,0.28 h 3.4 l 0.28,-0.28 c 0.04,-0.04 0.06,-0.08666 0.06,-0.14 v -1.12 c 0,-0.08 0.02666,-0.15 0.08,-0.21 0.05334,-0.06 0.12,-0.09 0.2,-0.09 h 1.84 c 0.08,0 0.14666,0.03 0.2,0.09 0.05334,0.06 0.08,0.13 0.08,0.21 v 2.12 c 0,0.09334 -0.01334,0.17334 -0.04,0.24 -0.02666,0.06666 -0.08666,0.14666 -0.18,0.24 z m 9.92,0.2 c -0.18666,0 -0.28,-0.09334 -0.28,-0.28 v -5.5 h -4.08 v 5.5 c 0,0.18666 -0.09334,0.28 -0.28,0.28 h -1.84 c -0.18666,0 -0.28,-0.09334 -0.28,-0.28 V 6.32 c 0,-0.18666 0.09334,-0.28 0.28,-0.28 h 1.84 c 0.18666,0 0.28,0.09334 0.28,0.28 v 5.5 h 4.08 v -5.5 c 0,-0.18666 0.09334,-0.28 0.28,-0.28 h 1.84 c 0.18666,0 0.28,0.09334 0.28,0.28 v 13.4 c 0,0.18666 -0.09334,0.28 -0.28,0.28 z"
       id="path725-6"
       inkscape:connector-curvature="0"
       style="fill:#4d4d4d"
       sodipodi:nodetypes="cssssccsssssssscsccsssssssccssssssssssscsssssscsccssssssscssccssssssscssssssscssssssccsccssssssssssssccssssssccssssssssssssssccssssssccssssscsssssssssccsssssssssssssccssccsssccssssssssssccssccssssssssccsssssss" />
  </g>
  <g
     id="SvgjsG2141-7"
     featurekey="text3"
     transform="matrix(0.93587111,0,0,0.93587111,82.991053,74.388335)"
     style="fill:#4d4d4d">
    <path
       d="m 67.8,20 c -0.18666,0 -0.28,-0.09334 -0.28,-0.28 V 6.32 c 0,-0.18666 0.09334,-0.28 0.28,-0.28 h 1.84 c 0.18666,0 0.28,0.09334 0.28,0.28 v 13.4 c 0,0.18666 -0.09334,0.28 -0.28,0.28 z m 10.56,0 c -0.08,0 -0.15666,-0.03 -0.23,-0.09 -0.07334,-0.06 -0.12334,-0.12334 -0.15,-0.19 l -3.5,-8.64 v 8.64 c 0,0.18666 -0.09334,0.28 -0.28,0.28 h -1.84 c -0.18666,0 -0.28,-0.09334 -0.28,-0.28 V 6.32 c 0,-0.18666 0.09334,-0.28 0.28,-0.28 h 2.44 c 0.13334,0 0.23334,0.09334 0.3,0.28 l 3.1,8.02 0.12,0.56 V 6.32 c 0,-0.18666 0.09334,-0.28 0.28,-0.28 h 1.84 c 0.18666,0 0.28,0.09334 0.28,0.28 v 13.4 c 0,0.18666 -0.09334,0.28 -0.28,0.28 z m 7.16,0 C 85.45334,20 85.39666,19.97664 85.35,19.92998 85.30334,19.88332 85.28,19.82666 85.28,19.76 V 8.44 h -2.8 C 82.29334,8.44 82.2,8.34666 82.2,8.16 V 6.32 c 0,-0.18666 0.09334,-0.28 0.28,-0.28 h 8.02 c 0.06666,0 0.13,0.02666 0.19,0.08 0.06,0.05334 0.09,0.12 0.09,0.2 v 1.84 c 0,0.08 -0.03,0.14666 -0.09,0.2 -0.06,0.05334 -0.12334,0.08 -0.19,0.08 h -2.82 v 11.32 c 0,0.16 -0.07334,0.24 -0.22,0.24 z m 14.2,-0.2 c -0.13334,0.13334 -0.36,0.20002 -0.68,0.20002 h -5.06 c -0.04,0 -0.10334,-0.01 -0.19,-0.03 -0.08666,-0.02 -0.17666,-0.07666 -0.27,-0.17 l -1.14,-1.14 c -0.09334,-0.09334 -0.15,-0.18334 -0.17,-0.27 -0.02,-0.08666 -0.03,-0.15 -0.03,-0.19 v -10.36 c 0,-0.05334 0.01,-0.12334 0.03,-0.21 0.02,-0.08666 0.07666,-0.17666 0.17,-0.27 l 1.14,-1.12 c 0.08,-0.08 0.15666,-0.13334 0.23,-0.16 0.07334,-0.02666 0.17,-0.04 0.29,-0.04 h 5.16 c 0.08,0 0.16666,0.01334 0.26,0.04 0.09334,0.02666 0.18,0.08 0.26,0.16 l 1.12,1.12 c 0.0667,0.06666 0.12,0.14332 0.16,0.22998 0.04,0.08666 0.06,0.18332 0.06,0.28998 v 10.26 c 0,0.13334 -0.02,0.23668 -0.06,0.31002 -0.04,0.07334 -0.0933,0.14334 -0.16,0.21 z M 98.6,17.32 c 0.04,-0.04 0.05998,-0.08668 0.05998,-0.14002 v -8.22 c 0,-0.01334 -0.0033,-0.03334 -0.01,-0.06 C 98.64332,8.87332 98.62666,8.84666 98.6,8.82 L 98.26,8.5 C 98.22,8.46 98.18,8.44 98.14,8.44 h -3.02 c -0.05334,0 -0.1,0.02 -0.14,0.06 L 94.64,8.82 C 94.6,8.86 94.58,8.90666 94.58,8.96 v 8.22 c 0,0.05334 0.02,0.1 0.06,0.14 l 0.28,0.28 h 3.4 z M 109.42,20 c -0.08,0 -0.15666,-0.03 -0.23,-0.09 -0.0733,-0.06 -0.12334,-0.12334 -0.15,-0.19 l -3.5,-8.64 v 8.64 c 0,0.18666 -0.0933,0.28 -0.28,0.28 h -1.84 c -0.18666,0 -0.28,-0.09334 -0.28,-0.28 V 6.32 c 0,-0.18666 0.0933,-0.28 0.28,-0.28 h 2.44 c 0.13334,0 0.23334,0.09334 0.3,0.28 l 3.1,8.02 0.12,0.56 V 6.32 c 0,-0.18666 0.0933,-0.28 0.28,-0.28 h 1.84 c 0.18666,0 0.28,0.09334 0.28,0.28 v 13.4 c 0,0.18666 -0.0933,0.28 -0.28,0.28 z m 12.44,0 c -0.08,0 -0.15664,-0.03002 -0.22998,-0.09002 -0.0733,-0.06 -0.12334,-0.13 -0.15,-0.21 l -0.78,-2.68 h -4.46 l -0.78,2.68 c -0.0267,0.08 -0.0767,0.15 -0.15,0.21 -0.0733,0.06 -0.15,0.09 -0.23,0.09 h -1.74 c -0.08,0 -0.15666,-0.03 -0.23,-0.09 -0.0733,-0.06 -0.0967,-0.13 -0.07,-0.21 l 3.96,-13.38 c 0.0267,-0.06666 0.06,-0.13332 0.1,-0.19998 0.04,-0.06666 0.1,-0.1 0.18,-0.1 h 2.36 c 0.13334,0 0.23334,0.09334 0.3,0.28 l 3.94,13.4 c 0.0267,0.08 0.007,0.15 -0.06,0.21 -0.0667,0.06 -0.14,0.09 -0.22,0.09 z m -3.4,-10.52 -1.5,5.1 h 3.02 z M 127.78,20 c -0.0667,0 -0.12334,-0.02336 -0.17,-0.07002 -0.0467,-0.04666 -0.07,-0.10332 -0.07,-0.16998 V 8.44 h -2.8 c -0.18666,0 -0.28,-0.09334 -0.28,-0.28 V 6.32 c 0,-0.18666 0.0933,-0.28 0.28,-0.28 h 8.02 c 0.0667,0 0.13,0.02666 0.19,0.08 0.06,0.05334 0.09,0.12 0.09,0.2 v 1.84 c 0,0.08 -0.03,0.14666 -0.09,0.2 -0.06,0.05334 -0.12334,0.08 -0.19,0.08 h -2.82 v 11.32 c 0,0.16 -0.0733,0.24 -0.22,0.24 z m 7.02,0 c -0.18666,0 -0.28,-0.09334 -0.28,-0.28 V 6.32 c 0,-0.18666 0.0933,-0.28 0.28,-0.28 h 1.84 c 0.18666,0 0.28,0.09334 0.28,0.28 v 13.4 c 0,0.18666 -0.0933,0.28 -0.28,0.28 z m 11.74,-0.2 c -0.13334,0.13334 -0.36,0.20002 -0.68,0.20002 h -5.06 c -0.04,0 -0.10334,-0.01 -0.19,-0.03 -0.0867,-0.02 -0.17666,-0.07666 -0.27,-0.17 l -1.14,-1.14 c -0.0933,-0.09334 -0.15,-0.18334 -0.17,-0.27 -0.02,-0.08666 -0.03,-0.15 -0.03,-0.19 v -10.36 c 0,-0.05334 0.01,-0.12334 0.03,-0.21 0.02,-0.08666 0.0767,-0.17666 0.17,-0.27 l 1.14,-1.12 c 0.08,-0.08 0.15666,-0.13334 0.23,-0.16 0.0733,-0.02666 0.17,-0.04 0.29,-0.04 h 5.16 c 0.08,0 0.16666,0.01334 0.26,0.04 0.0933,0.02666 0.18,0.08 0.26,0.16 l 1.12,1.12 c 0.0667,0.06666 0.12,0.14332 0.16,0.22998 0.04,0.08666 0.06,0.18332 0.06,0.28998 v 10.26 c 0,0.13334 -0.02,0.23668 -0.06,0.31002 -0.04,0.07334 -0.0933,0.14334 -0.16,0.21 z m -1.12,-2.48 c 0.04,-0.04 0.06,-0.08668 0.06,-0.14002 v -8.22 c 0,-0.01334 -0.003,-0.03334 -0.01,-0.06 C 145.463,8.87332 145.4467,8.84666 145.42,8.82 L 145.08,8.5 C 145.04,8.46 145,8.44 144.96,8.44 h -3.02 c -0.0533,0 -0.1,0.02 -0.14,0.06 l -0.34,0.32 c -0.04,0.04 -0.06,0.08666 -0.06,0.14 v 8.22 c 0,0.05334 0.02,0.1 0.06,0.14 l 0.28,0.28 h 3.4 z M 156.24,20 c -0.08,0 -0.15666,-0.03 -0.23,-0.09 -0.0733,-0.06 -0.12334,-0.12334 -0.15,-0.19 l -3.5,-8.64 v 8.64 c 0,0.18666 -0.0933,0.28 -0.28,0.28 h -1.84 c -0.18666,0 -0.28,-0.09334 -0.28,-0.28 V 6.32 c 0,-0.18666 0.0933,-0.28 0.28,-0.28 h 2.44 c 0.13334,0 0.23334,0.09334 0.3,0.28 l 3.1,8.02 0.12,0.56 V 6.32 c 0,-0.18666 0.0933,-0.28 0.28,-0.28 h 1.84 c 0.18666,0 0.28,0.09334 0.28,0.28 v 13.4 c 0,0.18666 -0.0933,0.28 -0.28,0.28 z"
       id="path725-5"
       inkscape:connector-curvature="0"
       style="fill:#4d4d4d"
       sodipodi:nodetypes="sssssssssssccssssssscccsssssssssscsssssssssscssscsssssssssccssssscssssccssscccssccsssccsscccssssssscccsssssssscccccssscccssscccssccccscscsssssssssscsssssssssssscsscscsssscccsscscssssccssssccssccsssccsscccssssssscccsssssss" />
  </g>
  <g
     id="SvgjsG2141-35"
     featurekey="text3"
     transform="matrix(0.93587111,0,0,0.93587111,85.78327,74.388335)"
     style="fill:#4d4d4d">
    <path
       d="m 173.48,20 c -0.08,0 -0.15664,-0.03002 -0.22998,-0.09002 -0.0733,-0.06 -0.12334,-0.13 -0.15,-0.21 l -0.78,-2.68 h -4.46 l -0.78,2.68 c -0.0267,0.08 -0.0767,0.15 -0.15,0.21 -0.0733,0.06 -0.15,0.09 -0.23,0.09 h -1.74 c -0.08,0 -0.15666,-0.03 -0.23,-0.09 -0.0733,-0.06 -0.0967,-0.13 -0.07,-0.21 l 3.96,-13.38 c 0.0267,-0.06666 0.06,-0.13332 0.1,-0.19998 0.04,-0.06666 0.1,-0.1 0.18,-0.1 h 2.36 c 0.13334,0 0.23334,0.09334 0.3,0.28 l 3.94,13.4 c 0.0267,0.08 0.007,0.15 -0.06,0.21 -0.0667,0.06 -0.14,0.09 -0.22,0.09 z m -3.4,-10.52 -1.5,5.1 h 3.02 z M 183.04,20 c -0.08,0 -0.15666,-0.03 -0.23,-0.09 -0.0733,-0.06 -0.12334,-0.12334 -0.15,-0.19 l -3.5,-8.64 v 8.64 c 0,0.18666 -0.0933,0.28 -0.28,0.28 h -1.84 c -0.18666,0 -0.28,-0.09334 -0.28,-0.28 V 6.32 c 0,-0.18666 0.0933,-0.28 0.28,-0.28 h 2.44 c 0.13334,0 0.23334,0.09334 0.3,0.28 l 3.1,8.02 0.12,0.56 V 6.32 c 0,-0.18666 0.0933,-0.28 0.28,-0.28 h 1.84 c 0.18666,0 0.28,0.09334 0.28,0.28 v 13.4 c 0,0.18666 -0.0933,0.28 -0.28,0.28 z m 12.44,0 c -0.08,0 -0.15664,-0.03002 -0.22998,-0.09002 -0.0733,-0.06 -0.12334,-0.13 -0.15,-0.21 l -0.78,-2.68 h -4.46 l -0.78,2.68 c -0.0267,0.08 -0.0767,0.15 -0.15,0.21 -0.0733,0.06 -0.15,0.09 -0.23,0.09 h -1.74 c -0.08,0 -0.15666,-0.03 -0.23,-0.09 -0.0733,-0.06 -0.0967,-0.13 -0.07,-0.21 l 3.96,-13.38 c 0.0267,-0.06666 0.06,-0.13332 0.1,-0.19998 0.04,-0.06666 0.1,-0.1 0.18,-0.1 h 2.36 c 0.13334,0 0.23334,0.09334 0.3,0.28 l 3.94,13.4 c 0.0267,0.08 0.007,0.15 -0.06,0.21 -0.0667,0.06 -0.14,0.09 -0.22,0.09 z m -3.4,-10.52 -1.5,5.1 h 3.02 z M 199.04,20 c -0.18666,0 -0.28,-0.09334 -0.28,-0.28 V 6.28 c 0,-0.06666 0.03,-0.12332 0.09,-0.16998 0.06,-0.04666 0.12334,-0.07 0.19,-0.07 h 1.84 c 0.0667,0 0.13,0.02334 0.19,0.07 0.06,0.04666 0.09,0.10332 0.09,0.16998 V 17.6 h 5.9 c 0.18666,0 0.28,0.09334 0.28,0.28 v 1.84 c 0,0.18666 -0.0933,0.28 -0.28,0.28 z m 10.06,0 c -0.18666,0 -0.28,-0.09334 -0.28,-0.28 V 6.32 c 0,-0.18666 0.0933,-0.28 0.28,-0.28 h 1.84 c 0.18666,0 0.28,0.09334 0.28,0.28 v 13.4 c 0,0.18666 -0.0933,0.28 -0.28,0.28 z m 4.14,0 c -0.18666,0 -0.28,-0.09336 -0.28,-0.28002 v -1.86 c 0,-0.06666 0.02,-0.13332 0.06,-0.19998 l 5.36,-9.22 h -5.14 c -0.18666,0 -0.28,-0.09334 -0.28,-0.28 V 6.32 c 0,-0.18666 0.0933,-0.28 0.28,-0.28 h 8.02 c 0.0667,0 0.13,0.02666 0.19,0.08 0.06,0.05334 0.09,0.12 0.09,0.2 v 1.8 c 0,0.04 -0.01,0.08334 -0.03,0.13 -0.02,0.04666 -0.0433,0.09 -0.07,0.13 l -5.38,9.22 h 5.2 c 0.0667,0 0.13,0.02666 0.19,0.08 0.06,0.05334 0.09,0.12 0.09,0.2 v 1.84 c 0,0.08 -0.03,0.14666 -0.09,0.2 -0.06,0.05334 -0.12334,0.08 -0.19,0.08 z m 10.32,0 c -0.18666,0 -0.28,-0.09334 -0.28,-0.28 V 6.32 c 0,-0.18666 0.0933,-0.28 0.28,-0.28 h 7.26 c 0.18666,0 0.28,0.09334 0.28,0.28 v 1.84 c 0,0.06666 -0.0267,0.13 -0.08,0.19 -0.0533,0.06 -0.12,0.09 -0.2,0.09 h -5.14 v 3.38 h 4.06 c 0.0667,0 0.13,0.02666 0.19,0.08 0.06,0.05334 0.09,0.12 0.09,0.2 v 1.84 c 0,0.08 -0.03,0.14666 -0.09,0.2 -0.06,0.05334 -0.12334,0.08 -0.19,0.08 h -4.06 v 3.38 h 5.14 c 0.18666,0 0.28,0.09334 0.28,0.28 v 1.84 c 0,0.18666 -0.0933,0.28 -0.28,0.28 z m 16.12,0 c -0.08,0 -0.15334,-0.03 -0.22,-0.09 -0.0667,-0.06 -0.11332,-0.12334 -0.13998,-0.19 l -1.98,-4.86 h -2.24 v 4.86 c 0,0.18666 -0.0933,0.28 -0.28,0.28 h -1.84 c -0.18666,0 -0.28,-0.09334 -0.28,-0.28 V 6.32 c 0,-0.18666 0.0933,-0.28 0.28,-0.28 h 6.36 c 0.0533,0 0.10668,0.00666 0.16002,0.02 0.0533,0.01334 0.11,0.03 0.17,0.05 0.06,0.02 0.12334,0.06334 0.19,0.13 l 1.12,1.12 c 0.10666,0.10666 0.17332,0.22666 0.19998,0.36 0.0133,0.05334 0.02,0.10668 0.02,0.16002 v 5.08 c 0,0.24 -0.0733,0.43334 -0.22,0.58 l -1.18,1.18 2.02,4.98 c 0.0267,0.06666 0.0233,0.13332 -0.01,0.19998 -0.0333,0.06666 -0.11,0.1 -0.23,0.1 z m -0.96,-7.92 c 0.04,-0.04 0.06,-0.08666 0.06,-0.14 V 8.92 c 0,-0.04 -0.0133,-0.07334 -0.04,-0.1 L 238.4,8.5 c -0.0667,-0.04 -0.11334,-0.06 -0.14,-0.06 h -3.16 v 4.02 h 3.16 c 0.0533,0 0.1,-0.02 0.14,-0.06 z"
       id="path725-62"
       inkscape:connector-curvature="0"
       style="fill:#4d4d4d"
       sodipodi:nodetypes="scccccssscccssscccssccccscccssssssscccsssssssscccccssscccssscccssccccsssssssscsssssssssssssssssccsssssssssccssssssssssssssssccssssssccssssssccccssssssscssscsscccssssssccsccsss" />
  </g>
  <g
     id="SvgjsG2141-9"
     featurekey="text3"
     transform="matrix(0.93587111,0,0,0.93587111,93.111728,74.369599)"
     style="fill:#4d4d4d">
    <path
       d="m 249.36,14.22 h -3.22 c -0.04,0 -0.08,0.02 -0.12,0.06 l -0.34,0.38 c -0.04,0.04 -0.06,0.1 -0.06,0.18 v 2.3 c 0,0.08 0.02,0.13334 0.06,0.16 l 0.28,0.28 h 3.4 z m 1.08,5.56 c -0.08,0.08 -0.15996,0.13668 -0.23996,0.17002 -0.08,0.03334 -0.14666,0.05 -0.2,0.05 h -5.18 c -0.0533,0 -0.12,-0.01334 -0.2,-0.04 -0.08,-0.02666 -0.16,-0.08666 -0.24,-0.18 l -1.12,-1.12 c -0.14666,-0.14666 -0.22,-0.31332 -0.22,-0.49998 v -3.96 c 0,-0.13334 0.0733,-0.27334 0.22,-0.42 l 0.58,-0.58 -0.58,-0.58 c -0.10666,-0.09334 -0.17,-0.17668 -0.19,-0.25002 -0.02,-0.07334 -0.03,-0.17 -0.03,-0.29 v -4.2 c 0,-0.04 0.01,-0.10666 0.03,-0.2 0.02,-0.09334 0.0833,-0.19334 0.19,-0.3 l 1.12,-1.12 c 0.0667,-0.06666 0.15332,-0.12 0.25998,-0.16 0.10666,-0.04 0.19332,-0.06 0.25998,-0.06 h 5.02 c 0.0667,0 0.14,0.01 0.22,0.03 0.08,0.02 0.18,0.08334 0.3,0.19 l 1.12,1.12 c 0.10666,0.10666 0.17,0.20666 0.19,0.3 0.02,0.09334 0.03,0.16 0.03,0.2 v 2.12 c 0,0.18666 -0.0733,0.28 -0.22,0.28 h -1.96 c -0.16,0 -0.24,-0.09334 -0.24,-0.28 v -1.54 h -3.22 c -0.04,0 -0.08,0.02 -0.12,0.06 l -0.34,0.34 c -0.04,0.04 -0.06,0.08 -0.06,0.12 v 2.42 c 0,0.06666 0.02,0.11332 0.06,0.13998 l 0.28,0.28 h 7.3 c 0.18666,0 0.28,0.09334 0.28,0.28 v 1.84 c 0,0.18666 -0.0933,0.28 -0.28,0.28 h -1.48 v 3.94 c 0,0.04 -0.01,0.10666 -0.03,0.2 -0.02,0.09334 -0.0833,0.19334 -0.19,0.3 z"
       id="path725-1"
       inkscape:connector-curvature="0"
       style="fill:#4d4d4d"
       sodipodi:nodetypes="csccssccccssssscssscccssssccsssscssssssscsssssccsssscsscs" />
  </g>
  <g
     id="SvgjsG2141-2"
     featurekey="text3"
     transform="matrix(0.93587111,0,0,0.93587111,100.89151,74.388335)"
     style="fill:#4d4d4d">
    <path
       d="m 257.58,20 c -0.0667,0 -0.12334,-0.02336 -0.17,-0.07002 -0.0467,-0.04666 -0.07,-0.10332 -0.07,-0.16998 V 8.44 h -2.8 c -0.18666,0 -0.28,-0.09334 -0.28,-0.28 V 6.32 c 0,-0.18666 0.0933,-0.28 0.28,-0.28 h 8.02 c 0.0667,0 0.13,0.02666 0.19,0.08 0.06,0.05334 0.09,0.12 0.09,0.2 v 1.84 c 0,0.08 -0.03,0.14666 -0.09,0.2 -0.06,0.05334 -0.12334,0.08 -0.19,0.08 h -2.82 v 11.32 c 0,0.16 -0.0733,0.24 -0.22,0.24 z m 13.72,0 c -0.08,0 -0.15334,-0.03 -0.22,-0.09 -0.0667,-0.06 -0.11332,-0.12334 -0.13998,-0.19 l -1.98,-4.86 h -2.24 v 4.86 c 0,0.18666 -0.0933,0.28 -0.28,0.28 h -1.84 c -0.18666,0 -0.28,-0.09334 -0.28,-0.28 V 6.32 c 0,-0.18666 0.0933,-0.28 0.28,-0.28 h 6.36 c 0.0533,0 0.10668,0.00666 0.16002,0.02 0.0533,0.01334 0.11,0.03 0.17,0.05 0.06,0.02 0.12334,0.06334 0.19,0.13 l 1.12,1.12 c 0.10666,0.10666 0.17332,0.22666 0.19998,0.36 0.0133,0.05334 0.02,0.10668 0.02,0.16002 v 5.08 c 0,0.24 -0.0733,0.43334 -0.22,0.58 l -1.18,1.18 2.02,4.98 c 0.0267,0.06666 0.0233,0.13332 -0.01,0.19998 -0.0333,0.06666 -0.11,0.1 -0.23,0.1 z m -0.96,-7.92 c 0.04,-0.04 0.06,-0.08666 0.06,-0.14 V 8.92 c 0,-0.04 -0.0133,-0.07334 -0.04,-0.1 L 270.02,8.5 c -0.0667,-0.04 -0.11334,-0.06 -0.14,-0.06 h -3.16 v 4.02 h 3.16 c 0.0533,0 0.1,-0.02 0.14,-0.06 z m 12.4,7.92 c -0.08,0 -0.15664,-0.03002 -0.22998,-0.09002 -0.0733,-0.06 -0.12334,-0.13 -0.15,-0.21 l -0.78,-2.68 h -4.46 l -0.78,2.68 c -0.0267,0.08 -0.0767,0.15 -0.15,0.21 -0.0733,0.06 -0.15,0.09 -0.23,0.09 h -1.74 c -0.08,0 -0.15666,-0.03 -0.23,-0.09 -0.0733,-0.06 -0.0967,-0.13 -0.07,-0.21 l 3.96,-13.38 c 0.0267,-0.06666 0.06,-0.13332 0.1,-0.19998 0.04,-0.06666 0.1,-0.1 0.18,-0.1 h 2.36 c 0.13334,0 0.23334,0.09334 0.3,0.28 l 3.94,13.4 c 0.0267,0.08 0.007,0.15 -0.06,0.21 -0.0667,0.06 -0.14,0.09 -0.22,0.09 z m -3.4,-10.52 -1.5,5.1 h 3.02 z M 286.3,20 c -0.18666,0 -0.28,-0.09334 -0.28,-0.28 V 6.32 c 0,-0.18666 0.0933,-0.28 0.28,-0.28 h 1.84 c 0.18666,0 0.28,0.09334 0.28,0.28 v 13.4 c 0,0.18666 -0.0933,0.28 -0.28,0.28 z m 10.56,0 c -0.08,0 -0.15666,-0.03 -0.23,-0.09 -0.0733,-0.06 -0.12334,-0.12334 -0.15,-0.19 l -3.5,-8.64 v 8.64 c 0,0.18666 -0.0933,0.28 -0.28,0.28 h -1.84 c -0.18666,0 -0.28,-0.09334 -0.28,-0.28 V 6.32 c 0,-0.18666 0.0933,-0.28 0.28,-0.28 h 2.44 c 0.13334,0 0.23334,0.09334 0.3,0.28 l 3.1,8.02 0.12,0.56 V 6.32 c 0,-0.18666 0.0933,-0.28 0.28,-0.28 h 1.84 c 0.18666,0 0.28,0.09334 0.28,0.28 v 13.4 c 0,0.18666 -0.0933,0.28 -0.28,0.28 z m 4.8,0 c -0.18666,0 -0.28,-0.09334 -0.28,-0.28 V 6.32 c 0,-0.18666 0.0933,-0.28 0.28,-0.28 h 7.26 c 0.18666,0 0.28,0.09334 0.28,0.28 v 1.84 c 0,0.06666 -0.0267,0.13 -0.08,0.19 -0.0533,0.06 -0.12,0.09 -0.2,0.09 h -5.14 v 3.38 h 4.06 c 0.0667,0 0.13,0.02666 0.19,0.08 0.06,0.05334 0.09,0.12 0.09,0.2 v 1.84 c 0,0.08 -0.03,0.14666 -0.09,0.2 -0.06,0.05334 -0.12334,0.08 -0.19,0.08 h -4.06 v 3.38 h 5.14 c 0.18666,0 0.28,0.09334 0.28,0.28 v 1.84 c 0,0.18666 -0.0933,0.28 -0.28,0.28 z m 16.12,0 c -0.08,0 -0.15334,-0.03 -0.22,-0.09 -0.0667,-0.06 -0.11332,-0.12334 -0.13998,-0.19 l -1.98,-4.86 h -2.24 v 4.86 c 0,0.18666 -0.0933,0.28 -0.28,0.28 h -1.84 c -0.18666,0 -0.28,-0.09334 -0.28,-0.28 V 6.32 c 0,-0.18666 0.0933,-0.28 0.28,-0.28 h 6.36 c 0.0533,0 0.10668,0.00666 0.16002,0.02 0.0533,0.01334 0.11,0.03 0.17,0.05 0.06,0.02 0.12334,0.06334 0.19,0.13 l 1.12,1.12 c 0.10666,0.10666 0.17332,0.22666 0.19998,0.36 0.0133,0.05334 0.02,0.10668 0.02,0.16002 v 5.08 c 0,0.24 -0.0733,0.43334 -0.22,0.58 l -1.18,1.18 2.02,4.98 c 0.0267,0.06666 0.0233,0.13332 -0.01,0.19998 -0.0333,0.06666 -0.11,0.1 -0.23,0.1 z m -0.96,-7.92 c 0.04,-0.04 0.06,-0.08666 0.06,-0.14 V 8.92 c 0,-0.04 -0.0133,-0.07334 -0.04,-0.1 L 316.5,8.5 c -0.0667,-0.04 -0.11334,-0.06 -0.14,-0.06 h -3.16 v 4.02 h 3.16 c 0.0533,0 0.1,-0.02 0.14,-0.06 z"
       id="path725-7"
       inkscape:connector-curvature="0"
       style="fill:#4d4d4d"
       sodipodi:nodetypes="scscsssssssssscssssccccssssssscssscsscccssssssccsccsssscccccssscccssscccssccccsssssssssscccssssssscccssssssssssssssssccssssssccssssssccccssssssscssscsscccssssssccsccsss" />
  </g>
</svg>
